<?xml version="1.0" encoding="UTF-8" standalone="no"?>
<!DOCTYPE svg PUBLIC "-//W3C//DTD SVG 1.1//EN"
 "http://www.w3.org/Graphics/SVG/1.1/DTD/svg11.dtd">
<!-- Generated by graphviz version 2.40.1 (0)
 -->
<!-- Title: GradleSetup Pages: 1 -->
<svg width="1450pt" height="752pt"
 viewBox="0.00 0.00 1450.00 752.00" xmlns="http://www.w3.org/2000/svg" xmlns:xlink="http://www.w3.org/1999/xlink">
<g id="graph0" class="graph" transform="scale(1 1) rotate(0) translate(4 748)">
<title>GradleSetup</title>
<polygon fill="#ffffff" stroke="transparent" points="-4,4 -4,-748 1446,-748 1446,4 -4,4"/>
<text text-anchor="middle" x="64" y="-728.8" font-family="Times,serif" font-size="14.00" fill="#000000">Gradle Build Setup</text>
<g id="clust1" class="cluster">
<title>cluster1</title>
<polygon fill="#d3d3d3" stroke="#000000" points="8,-8 8,-713 1202,-713 1202,-8 8,-8"/>
<text text-anchor="middle" x="95.5" y="-15.8" font-family="Times,serif" font-size="14.00" fill="#000000">Java Projects / Bnd Projects</text>
</g>
<g id="clust2" class="cluster">
<title>cluster101</title>
</g>
<g id="clust3" class="cluster">
<title>cluster102</title>
</g>
<g id="clust4" class="cluster">
<title>cluster103</title>
</g>
<g id="clust5" class="cluster">
<title>cluster104</title>
</g>
<g id="clust6" class="cluster">
<title>cluster105</title>
</g>
<g id="clust7" class="cluster">
<title>cluster106</title>
</g>
<g id="clust8" class="cluster">
<title>cluster107</title>
</g>
<g id="clust9" class="cluster">
<title>cluster108</title>
</g>
<g id="clust10" class="cluster">
<title>cluster109</title>
</g>
<g id="clust11" class="cluster">
<title>cluster110</title>
</g>
<g id="clust12" class="cluster">
<title>cluster2</title>
<polygon fill="#d3d3d3" stroke="#000000" points="1210,-387 1210,-622 1434,-622 1434,-387 1210,-387"/>
<text text-anchor="middle" x="1251.5" y="-394.8" font-family="Times,serif" font-size="14.00" fill="#000000">All Projects</text>
</g>
<g id="clust13" class="cluster">
<title>cluster201</title>
</g>
<g id="clust14" class="cluster">
<title>cluster3</title>
<polygon fill="#d3d3d3" stroke="#000000" points="1246,-630 1246,-705 1398,-705 1398,-630 1246,-630"/>
<text text-anchor="middle" x="1290.5" y="-637.8" font-family="Times,serif" font-size="14.00" fill="#000000">Root Project</text>
</g>
<!-- compileJava -->
<g id="node1" class="node">
<title>compileJava</title>
<polygon fill="#e0ffff" stroke="#000000" points="604.5,-697 517.5,-697 517.5,-661 604.5,-661 604.5,-697"/>
<text text-anchor="middle" x="561" y="-675.3" font-family="Times,serif" font-size="14.00" fill="#000000">compileJava</text>
</g>
<!-- classes -->
<g id="node3" class="node">
<title>classes</title>
<polygon fill="#e0ffff" stroke="#000000" points="468,-606 414,-606 414,-570 468,-570 468,-606"/>
<text text-anchor="middle" x="441" y="-584.3" font-family="Times,serif" font-size="14.00" fill="#000000">classes</text>
</g>
<!-- compileJava&#45;&gt;classes -->
<g id="edge1" class="edge">
<title>compileJava&#45;&gt;classes</title>
<path fill="none" stroke="#000000" d="M543.1017,-660.8828C533.1617,-651.2332 520.3413,-639.4418 508,-630 498.3019,-622.5804 487.2549,-615.2464 476.967,-608.8343"/>
<polygon fill="#000000" stroke="#000000" points="478.5318,-605.6887 468.1745,-603.4578 474.88,-611.6607 478.5318,-605.6887"/>
</g>
<!-- processResources -->
<g id="node2" class="node">
<title>processResources</title>
<polygon fill="#e0ffff" stroke="#000000" points="499,-697 383,-697 383,-661 499,-661 499,-697"/>
<text text-anchor="middle" x="441" y="-675.3" font-family="Times,serif" font-size="14.00" fill="#000000">processResources</text>
</g>
<!-- processResources&#45;&gt;classes -->
<g id="edge2" class="edge">
<title>processResources&#45;&gt;classes</title>
<path fill="none" stroke="#000000" d="M441,-660.5848C441,-647.9209 441,-630.8558 441,-616.4541"/>
<polygon fill="#000000" stroke="#000000" points="444.5001,-616.0772 441,-606.0773 437.5001,-616.0773 444.5001,-616.0772"/>
</g>
<!-- jar -->
<g id="node4" class="node">
<title>jar</title>
<polygon fill="#00ffff" stroke="#000000" points="551,-534 497,-534 497,-498 551,-498 551,-534"/>
<text text-anchor="middle" x="524" y="-512.3" font-family="Times,serif" font-size="14.00" fill="#000000">jar</text>
</g>
<!-- classes&#45;&gt;jar -->
<g id="edge4" class="edge">
<title>classes&#45;&gt;jar</title>
<path fill="none" stroke="#000000" d="M461.9444,-569.8314C472.0691,-561.0485 484.3777,-550.3712 495.3548,-540.8489"/>
<polygon fill="#000000" stroke="#000000" points="497.8019,-543.3595 503.0623,-534.1628 493.2149,-538.0718 497.8019,-543.3595"/>
</g>
<!-- compileTestJava -->
<g id="node5" class="node">
<title>compileTestJava</title>
<polygon fill="#e0ffff" stroke="#000000" points="431,-534 321,-534 321,-498 431,-498 431,-534"/>
<text text-anchor="middle" x="376" y="-512.3" font-family="Times,serif" font-size="14.00" fill="#000000">compileTestJava</text>
</g>
<!-- classes&#45;&gt;compileTestJava -->
<g id="edge3" class="edge">
<title>classes&#45;&gt;compileTestJava</title>
<path fill="none" stroke="#000000" d="M424.5978,-569.8314C416.9585,-561.3694 407.7317,-551.1489 399.3793,-541.8971"/>
<polygon fill="#000000" stroke="#000000" points="401.9221,-539.4906 392.6231,-534.4133 396.7262,-544.1813 401.9221,-539.4906"/>
</g>
<!-- test -->
<g id="node8" class="node">
<title>test</title>
<polygon fill="#e0ffff" stroke="#000000" points="129,-371 75,-371 75,-335 129,-335 129,-371"/>
<text text-anchor="middle" x="102" y="-349.3" font-family="Times,serif" font-size="14.00" fill="#000000">test</text>
</g>
<!-- classes&#45;&gt;test -->
<g id="edge5" class="edge">
<title>classes&#45;&gt;test</title>
<path fill="none" stroke="#000000" d="M413.7825,-587.3739C349.213,-585.3267 189.3063,-576.782 151,-542 105.4051,-500.5999 99.8477,-422.7677 100.4634,-381.068"/>
<polygon fill="#000000" stroke="#000000" points="103.9627,-381.141 100.7422,-371.0475 96.9654,-380.9463 103.9627,-381.141"/>
</g>
<!-- uploadArchives -->
<g id="node9" class="node">
<title>uploadArchives</title>
<polygon fill="#e0ffff" stroke="#000000" points="577.5,-462 470.5,-462 470.5,-426 577.5,-426 577.5,-462"/>
<text text-anchor="middle" x="524" y="-440.3" font-family="Times,serif" font-size="14.00" fill="#000000">uploadArchives</text>
</g>
<!-- jar&#45;&gt;uploadArchives -->
<g id="edge8" class="edge">
<title>jar&#45;&gt;uploadArchives</title>
<path fill="none" stroke="#000000" d="M524,-497.8314C524,-490.131 524,-480.9743 524,-472.4166"/>
<polygon fill="#000000" stroke="#000000" points="527.5001,-472.4132 524,-462.4133 520.5001,-472.4133 527.5001,-472.4132"/>
</g>
<!-- assemble -->
<g id="node10" class="node">
<title>assemble</title>
<polygon fill="#e0ffff" stroke="#000000" points="664,-462 596,-462 596,-426 664,-426 664,-462"/>
<text text-anchor="middle" x="630" y="-440.3" font-family="Times,serif" font-size="14.00" fill="#000000">assemble</text>
</g>
<!-- jar&#45;&gt;assemble -->
<g id="edge9" class="edge">
<title>jar&#45;&gt;assemble</title>
<path fill="none" stroke="#000000" d="M550.7483,-497.8314C564.0553,-488.7927 580.316,-477.7476 594.6375,-468.0198"/>
<polygon fill="#000000" stroke="#000000" points="596.9547,-470.677 603.2603,-462.1628 593.0215,-464.8864 596.9547,-470.677"/>
</g>
<!-- testClasses -->
<g id="node7" class="node">
<title>testClasses</title>
<polygon fill="#e0ffff" stroke="#000000" points="271.5,-462 194.5,-462 194.5,-426 271.5,-426 271.5,-462"/>
<text text-anchor="middle" x="233" y="-440.3" font-family="Times,serif" font-size="14.00" fill="#000000">testClasses</text>
</g>
<!-- compileTestJava&#45;&gt;testClasses -->
<g id="edge6" class="edge">
<title>compileTestJava&#45;&gt;testClasses</title>
<path fill="none" stroke="#000000" d="M339.9151,-497.8314C321.2011,-488.4089 298.1568,-476.8062 278.26,-466.7883"/>
<polygon fill="#000000" stroke="#000000" points="279.5792,-463.5339 269.0734,-462.1628 276.4311,-469.7861 279.5792,-463.5339"/>
</g>
<!-- processTestResources -->
<g id="node6" class="node">
<title>processTestResources</title>
<polygon fill="#e0ffff" stroke="#000000" points="303,-534 163,-534 163,-498 303,-498 303,-534"/>
<text text-anchor="middle" x="233" y="-512.3" font-family="Times,serif" font-size="14.00" fill="#000000">processTestResources</text>
</g>
<!-- processTestResources&#45;&gt;testClasses -->
<g id="edge7" class="edge">
<title>processTestResources&#45;&gt;testClasses</title>
<path fill="none" stroke="#000000" d="M233,-497.8314C233,-490.131 233,-480.9743 233,-472.4166"/>
<polygon fill="#000000" stroke="#000000" points="236.5001,-472.4132 233,-462.4133 229.5001,-472.4133 236.5001,-472.4132"/>
</g>
<!-- testClasses&#45;&gt;test -->
<g id="edge10" class="edge">
<title>testClasses&#45;&gt;test</title>
<path fill="none" stroke="#000000" d="M206.805,-425.8035C186.6346,-411.792 158.573,-392.2988 136.5624,-377.009"/>
<polygon fill="#000000" stroke="#000000" points="138.3593,-373.9956 128.1496,-371.165 134.3656,-379.7446 138.3593,-373.9956"/>
</g>
<!-- check -->
<g id="node12" class="node">
<title>check</title>
<polygon fill="#00ffff" stroke="#000000" points="342,-227 288,-227 288,-191 342,-191 342,-227"/>
<text text-anchor="middle" x="315" y="-205.3" font-family="Times,serif" font-size="14.00" fill="#000000">check</text>
</g>
<!-- test&#45;&gt;check -->
<g id="edge14" class="edge">
<title>test&#45;&gt;check</title>
<path fill="none" stroke="#000000" d="M74.7535,-338.8186C63.0032,-331.1264 50.4864,-320.4232 44,-307 33.9446,-286.191 28.634,-272.2629 44,-255 77.7482,-217.0856 216.6287,-240.9759 278.056,-228.1539"/>
<polygon fill="#000000" stroke="#000000" points="279.136,-231.4885 287.9039,-225.5409 277.3407,-224.7226 279.136,-231.4885"/>
</g>
<!-- spotbugsTest -->
<g id="node28" class="node">
<title>spotbugsTest</title>
<polygon fill="#ffa500" stroke="#000000" points="148,-299 56,-299 56,-263 148,-263 148,-299"/>
<text text-anchor="middle" x="102" y="-277.3" font-family="Times,serif" font-size="14.00" fill="#000000">spotbugsTest</text>
</g>
<!-- test&#45;&gt;spotbugsTest -->
<g id="edge37" class="edge">
<title>test&#45;&gt;spotbugsTest</title>
<path fill="none" stroke="#000000" d="M102,-334.8314C102,-327.131 102,-317.9743 102,-309.4166"/>
<polygon fill="#000000" stroke="#000000" points="105.5001,-309.4132 102,-299.4133 98.5001,-309.4133 105.5001,-309.4132"/>
</g>
<!-- jacocoTestReport -->
<g id="node34" class="node">
<title>jacocoTestReport</title>
<polygon fill="#ffa500" stroke="#000000" points="201,-155 85,-155 85,-119 201,-119 201,-155"/>
<text text-anchor="middle" x="143" y="-133.3" font-family="Times,serif" font-size="14.00" fill="#000000">jacocoTestReport</text>
</g>
<!-- test&#45;&gt;jacocoTestReport -->
<g id="edge40" class="edge">
<title>test&#45;&gt;jacocoTestReport</title>
<path fill="none" stroke="#ff00ff" d="M74.6812,-343.0665C58.8473,-335.7306 40.2599,-324.0329 31,-307 19.9615,-286.6955 22.4349,-276.4654 31,-255 46.5575,-216.0105 81.8011,-182.5202 108.6288,-161.2855"/>
<polygon fill="#ff00ff" stroke="#ff00ff" points="110.8725,-163.9751 116.6534,-155.0964 106.5974,-158.4322 110.8725,-163.9751"/>
</g>
<!-- assemble&#45;&gt;compileJava -->
<g id="edge22" class="edge">
<title>assemble&#45;&gt;compileJava</title>
<path fill="none" stroke="#ff0000" d="M624.6822,-462.1113C612.6992,-502.9231 583.5184,-602.3071 569.1991,-651.0756"/>
<polygon fill="#ff0000" stroke="#ff0000" points="565.7588,-650.3691 566.2997,-660.9502 572.4753,-652.3413 565.7588,-650.3691"/>
</g>
<!-- testOSGi -->
<g id="node11" class="node">
<title>testOSGi</title>
<polygon fill="#00ffff" stroke="#000000" points="378,-299 310,-299 310,-263 378,-263 378,-299"/>
<text text-anchor="middle" x="344" y="-277.3" font-family="Times,serif" font-size="14.00" fill="#000000">testOSGi</text>
</g>
<!-- assemble&#45;&gt;testOSGi -->
<g id="edge12" class="edge">
<title>assemble&#45;&gt;testOSGi</title>
<path fill="none" stroke="#000000" d="M621.726,-425.8714C614.5837,-412.5545 602.9004,-395.381 587,-387 552.5616,-368.8477 446.0713,-397.8322 412,-379 384.4059,-363.7479 365.5821,-331.9749 354.8568,-308.7265"/>
<polygon fill="#000000" stroke="#000000" points="357.9716,-307.114 350.7541,-299.3578 351.5595,-309.922 357.9716,-307.114"/>
</g>
<!-- release -->
<g id="node14" class="node">
<title>release</title>
<polygon fill="#00ffff" stroke="#000000" points="520,-371 466,-371 466,-335 520,-335 520,-371"/>
<text text-anchor="middle" x="493" y="-349.3" font-family="Times,serif" font-size="14.00" fill="#000000">release</text>
</g>
<!-- assemble&#45;&gt;release -->
<g id="edge23" class="edge">
<title>assemble&#45;&gt;release</title>
<path fill="none" stroke="#000000" d="M620.8033,-425.8485C613.3895,-413.0581 601.7754,-396.5668 587,-387 573.6058,-378.3275 567.1472,-384.0178 552,-379 544.6948,-376.58 537.0582,-373.5847 529.7949,-370.4975"/>
<polygon fill="#000000" stroke="#000000" points="530.7513,-367.0948 520.1881,-366.2763 527.9353,-373.5034 530.7513,-367.0948"/>
</g>
<!-- testrunX -->
<g id="node16" class="node">
<title>testrunX</title>
<polygon fill="#00ffff" stroke="#000000" points="1174,-371 1072,-371 1068,-367 1068,-335 1170,-335 1174,-339 1174,-371"/>
<polyline fill="none" stroke="#000000" points="1170,-367 1068,-367 "/>
<polyline fill="none" stroke="#000000" points="1170,-367 1170,-335 "/>
<polyline fill="none" stroke="#000000" points="1170,-367 1174,-371 "/>
<text text-anchor="middle" x="1121" y="-349.3" font-family="Times,serif" font-size="14.00" fill="#000000">testrun.&lt;name&gt;</text>
</g>
<!-- assemble&#45;&gt;testrunX -->
<g id="edge29" class="edge">
<title>assemble&#45;&gt;testrunX</title>
<path fill="none" stroke="#000000" d="M664.2495,-441.69C737.7512,-436.1102 915.5823,-419.2678 1059,-379 1063.3528,-377.7779 1067.8077,-376.3303 1072.2343,-374.7536"/>
<polygon fill="#000000" stroke="#000000" points="1073.7088,-377.9382 1081.8289,-371.1327 1071.2372,-371.389 1073.7088,-377.9382"/>
</g>
<!-- runX -->
<g id="node17" class="node">
<title>runX</title>
<polygon fill="#00ffff" stroke="#000000" points="1049.5,-371 966.5,-371 962.5,-367 962.5,-335 1045.5,-335 1049.5,-339 1049.5,-371"/>
<polyline fill="none" stroke="#000000" points="1045.5,-367 962.5,-367 "/>
<polyline fill="none" stroke="#000000" points="1045.5,-367 1045.5,-335 "/>
<polyline fill="none" stroke="#000000" points="1045.5,-367 1049.5,-371 "/>
<text text-anchor="middle" x="1006" y="-349.3" font-family="Times,serif" font-size="14.00" fill="#000000">run.&lt;name&gt;</text>
</g>
<!-- assemble&#45;&gt;runX -->
<g id="edge28" class="edge">
<title>assemble&#45;&gt;runX</title>
<path fill="none" stroke="#000000" d="M664.2312,-440.0565C724.0353,-432.5229 850.9018,-413.6667 953,-379 956.3027,-377.8786 959.6638,-376.5959 963.0096,-375.2146"/>
<polygon fill="#000000" stroke="#000000" points="964.5917,-378.3424 972.3365,-371.1127 961.7736,-371.9347 964.5917,-378.3424"/>
</g>
<!-- resolveX -->
<g id="node18" class="node">
<title>resolveX</title>
<polygon fill="#00ffff" stroke="#000000" points="944,-371 840,-371 836,-367 836,-335 940,-335 944,-339 944,-371"/>
<polyline fill="none" stroke="#000000" points="940,-367 836,-367 "/>
<polyline fill="none" stroke="#000000" points="940,-367 940,-335 "/>
<polyline fill="none" stroke="#000000" points="940,-367 944,-371 "/>
<text text-anchor="middle" x="890" y="-349.3" font-family="Times,serif" font-size="14.00" fill="#000000">resolve.&lt;name&gt;</text>
</g>
<!-- assemble&#45;&gt;resolveX -->
<g id="edge26" class="edge">
<title>assemble&#45;&gt;resolveX</title>
<path fill="none" stroke="#000000" d="M664.0731,-433.5853C703.5558,-421.3266 770.4375,-399.9715 827,-379 830.6403,-377.6503 834.3825,-376.2194 838.1405,-374.7504"/>
<polygon fill="#000000" stroke="#000000" points="839.4652,-377.9903 847.4658,-371.0447 836.8801,-371.4851 839.4652,-377.9903"/>
</g>
<!-- exportX -->
<g id="node20" class="node">
<title>exportX</title>
<polygon fill="#00ffff" stroke="#000000" points="818,-371 718,-371 714,-367 714,-335 814,-335 818,-339 818,-371"/>
<polyline fill="none" stroke="#000000" points="814,-367 714,-367 "/>
<polyline fill="none" stroke="#000000" points="814,-367 814,-335 "/>
<polyline fill="none" stroke="#000000" points="814,-367 818,-371 "/>
<text text-anchor="middle" x="766" y="-349.3" font-family="Times,serif" font-size="14.00" fill="#000000">export.&lt;name&gt;</text>
</g>
<!-- assemble&#45;&gt;exportX -->
<g id="edge24" class="edge">
<title>assemble&#45;&gt;exportX</title>
<path fill="none" stroke="#000000" d="M657.1948,-425.8035C678.2277,-411.73 707.5257,-392.1262 730.4214,-376.8063"/>
<polygon fill="#000000" stroke="#000000" points="732.4877,-379.635 738.8524,-371.165 728.5949,-373.8172 732.4877,-379.635"/>
</g>
<!-- runbundlesX -->
<g id="node22" class="node">
<title>runbundlesX</title>
<polygon fill="#00ffff" stroke="#000000" points="696,-371 568,-371 564,-367 564,-335 692,-335 696,-339 696,-371"/>
<polyline fill="none" stroke="#000000" points="692,-367 564,-367 "/>
<polyline fill="none" stroke="#000000" points="692,-367 692,-335 "/>
<polyline fill="none" stroke="#000000" points="692,-367 696,-371 "/>
<text text-anchor="middle" x="630" y="-349.3" font-family="Times,serif" font-size="14.00" fill="#000000">runbundles.&lt;name&gt;</text>
</g>
<!-- assemble&#45;&gt;runbundlesX -->
<g id="edge30" class="edge">
<title>assemble&#45;&gt;runbundlesX</title>
<path fill="none" stroke="#000000" d="M630,-425.5848C630,-412.9209 630,-395.8558 630,-381.4541"/>
<polygon fill="#000000" stroke="#000000" points="633.5001,-381.0772 630,-371.0773 626.5001,-381.0773 633.5001,-381.0772"/>
</g>
<!-- build -->
<g id="node24" class="node">
<title>build</title>
<polygon fill="#e0ffff" stroke="#000000" points="829,-155 775,-155 775,-119 829,-119 829,-155"/>
<text text-anchor="middle" x="802" y="-133.3" font-family="Times,serif" font-size="14.00" fill="#000000">build</text>
</g>
<!-- assemble&#45;&gt;build -->
<g id="edge11" class="edge">
<title>assemble&#45;&gt;build</title>
<path fill="none" stroke="#000000" d="M664.327,-442.5889C780.1336,-437.481 1151.1523,-418.1589 1186,-379 1222.6372,-337.8302 1218.7497,-299.3248 1186,-255 1143.9338,-198.066 927.127,-157.228 839.1553,-142.7584"/>
<polygon fill="#000000" stroke="#000000" points="839.5175,-139.2714 829.0861,-141.1252 838.3967,-146.1811 839.5175,-139.2714"/>
</g>
<!-- spotbugsMain -->
<g id="node27" class="node">
<title>spotbugsMain</title>
<polygon fill="#ffa500" stroke="#000000" points="264,-299 166,-299 166,-263 264,-263 264,-299"/>
<text text-anchor="middle" x="215" y="-277.3" font-family="Times,serif" font-size="14.00" fill="#000000">spotbugsMain</text>
</g>
<!-- assemble&#45;&gt;spotbugsMain -->
<g id="edge36" class="edge">
<title>assemble&#45;&gt;spotbugsMain</title>
<path fill="none" stroke="#000000" d="M621.7503,-425.8251C614.621,-412.4834 602.9434,-395.2991 587,-387 564.7119,-375.3983 384.9039,-386.7434 361,-379 314.7424,-364.0155 269.5284,-329.7408 241.9659,-305.9803"/>
<polygon fill="#000000" stroke="#000000" points="244.1592,-303.2483 234.3356,-299.2799 239.5403,-308.5083 244.1592,-303.2483"/>
</g>
<!-- testOSGi&#45;&gt;check -->
<g id="edge13" class="edge">
<title>testOSGi&#45;&gt;check</title>
<path fill="none" stroke="#000000" d="M336.6821,-262.8314C333.5124,-254.9617 329.73,-245.5712 326.2187,-236.8533"/>
<polygon fill="#000000" stroke="#000000" points="329.3992,-235.3815 322.4165,-227.4133 322.9061,-237.9968 329.3992,-235.3815"/>
</g>
<!-- checkNeeded -->
<g id="node13" class="node">
<title>checkNeeded</title>
<polygon fill="#00ffff" stroke="#000000" points="381.5,-155 288.5,-155 288.5,-119 381.5,-119 381.5,-155"/>
<text text-anchor="middle" x="335" y="-133.3" font-family="Times,serif" font-size="14.00" fill="#000000">checkNeeded</text>
</g>
<!-- check&#45;&gt;checkNeeded -->
<g id="edge15" class="edge">
<title>check&#45;&gt;checkNeeded</title>
<path fill="none" stroke="#000000" d="M320.0468,-190.8314C322.2094,-183.0463 324.7853,-173.7729 327.1848,-165.1347"/>
<polygon fill="#000000" stroke="#000000" points="330.581,-165.9852 329.8852,-155.4133 323.8364,-164.1117 330.581,-165.9852"/>
</g>
<!-- check&#45;&gt;build -->
<g id="edge17" class="edge">
<title>check&#45;&gt;build</title>
<path fill="none" stroke="#000000" d="M342.2268,-204.9747C424.5726,-192.8003 671.0847,-156.355 765.0566,-142.4619"/>
<polygon fill="#000000" stroke="#000000" points="765.5846,-145.9219 774.9651,-140.9969 764.5608,-138.9972 765.5846,-145.9219"/>
</g>
<!-- check&#45;&gt;jacocoTestReport -->
<g id="edge41" class="edge">
<title>check&#45;&gt;jacocoTestReport</title>
<path fill="none" stroke="#ff00ff" d="M287.7437,-192.856C286.4872,-192.2124 285.2353,-191.5905 284,-191 258.9459,-179.0237 230.4819,-167.7122 205.7205,-158.5661"/>
<polygon fill="#ff00ff" stroke="#ff00ff" points="206.666,-155.1854 196.0721,-155.0419 204.2643,-161.7605 206.666,-155.1854"/>
</g>
<!-- checkNeeded&#45;&gt;checkNeeded -->
<g id="edge16" class="edge">
<title>checkNeeded&#45;&gt;checkNeeded</title>
<path fill="none" stroke="#ff0000" d="M381.6737,-150.1366C391.988,-148.9023 399.5,-144.5234 399.5,-137 399.5,-132.1803 396.4171,-128.6511 391.4894,-126.4125"/>
<polygon fill="#ff0000" stroke="#ff0000" points="392.2324,-122.9894 381.6737,-123.8634 390.4728,-129.7646 392.2324,-122.9894"/>
</g>
<!-- releaseNeeded -->
<g id="node15" class="node">
<title>releaseNeeded</title>
<polygon fill="#00ffff" stroke="#000000" points="522,-299 424,-299 424,-263 522,-263 522,-299"/>
<text text-anchor="middle" x="473" y="-277.3" font-family="Times,serif" font-size="14.00" fill="#000000">releaseNeeded</text>
</g>
<!-- release&#45;&gt;releaseNeeded -->
<g id="edge32" class="edge">
<title>release&#45;&gt;releaseNeeded</title>
<path fill="none" stroke="#000000" d="M487.9532,-334.8314C485.7906,-327.0463 483.2147,-317.7729 480.8152,-309.1347"/>
<polygon fill="#000000" stroke="#000000" points="484.1636,-308.1117 478.1148,-299.4133 477.419,-309.9852 484.1636,-308.1117"/>
</g>
<!-- releaseNeeded&#45;&gt;releaseNeeded -->
<g id="edge33" class="edge">
<title>releaseNeeded&#45;&gt;releaseNeeded</title>
<path fill="none" stroke="#ff0000" d="M522.0804,-294.0641C532.4858,-292.7375 540,-288.3828 540,-281 540,-276.2704 536.9162,-272.7835 531.964,-270.5394"/>
<polygon fill="#ff0000" stroke="#ff0000" points="532.6421,-267.0987 522.0804,-267.9359 530.859,-273.8678 532.6421,-267.0987"/>
</g>
<!-- resolve -->
<g id="node19" class="node">
<title>resolve</title>
<polygon fill="#00ffff" stroke="#000000" points="918.5,-299 861.5,-299 861.5,-263 918.5,-263 918.5,-299"/>
<text text-anchor="middle" x="890" y="-277.3" font-family="Times,serif" font-size="14.00" fill="#000000">resolve</text>
</g>
<!-- resolveX&#45;&gt;resolve -->
<g id="edge27" class="edge">
<title>resolveX&#45;&gt;resolve</title>
<path fill="none" stroke="#000000" d="M890,-334.8314C890,-327.131 890,-317.9743 890,-309.4166"/>
<polygon fill="#000000" stroke="#000000" points="893.5001,-309.4132 890,-299.4133 886.5001,-309.4133 893.5001,-309.4132"/>
</g>
<!-- export -->
<g id="node21" class="node">
<title>export</title>
<polygon fill="#00ffff" stroke="#000000" points="793,-299 739,-299 739,-263 793,-263 793,-299"/>
<text text-anchor="middle" x="766" y="-277.3" font-family="Times,serif" font-size="14.00" fill="#000000">export</text>
</g>
<!-- exportX&#45;&gt;export -->
<g id="edge25" class="edge">
<title>exportX&#45;&gt;export</title>
<path fill="none" stroke="#000000" d="M766,-334.8314C766,-327.131 766,-317.9743 766,-309.4166"/>
<polygon fill="#000000" stroke="#000000" points="769.5001,-309.4132 766,-299.4133 762.5001,-309.4133 769.5001,-309.4132"/>
</g>
<!-- runbundles -->
<g id="node23" class="node">
<title>runbundles</title>
<polygon fill="#00ffff" stroke="#000000" points="670.5,-299 589.5,-299 589.5,-263 670.5,-263 670.5,-299"/>
<text text-anchor="middle" x="630" y="-277.3" font-family="Times,serif" font-size="14.00" fill="#000000">runbundles</text>
</g>
<!-- runbundlesX&#45;&gt;runbundles -->
<g id="edge31" class="edge">
<title>runbundlesX&#45;&gt;runbundles</title>
<path fill="none" stroke="#000000" d="M630,-334.8314C630,-327.131 630,-317.9743 630,-309.4166"/>
<polygon fill="#000000" stroke="#000000" points="633.5001,-309.4132 630,-299.4133 626.5001,-309.4133 633.5001,-309.4132"/>
</g>
<!-- buildDependents -->
<g id="node25" class="node">
<title>buildDependents</title>
<polygon fill="#e0ffff" stroke="#000000" points="790,-83 676,-83 676,-47 790,-47 790,-83"/>
<text text-anchor="middle" x="733" y="-61.3" font-family="Times,serif" font-size="14.00" fill="#000000">buildDependents</text>
</g>
<!-- build&#45;&gt;buildDependents -->
<g id="edge18" class="edge">
<title>build&#45;&gt;buildDependents</title>
<path fill="none" stroke="#000000" d="M784.5884,-118.8314C776.479,-110.3694 766.6844,-100.1489 757.818,-90.8971"/>
<polygon fill="#000000" stroke="#000000" points="760.0921,-88.2115 750.646,-83.4133 755.0382,-93.0549 760.0921,-88.2115"/>
</g>
<!-- buildNeeded -->
<g id="node26" class="node">
<title>buildNeeded</title>
<polygon fill="#e0ffff" stroke="#000000" points="916,-83 826,-83 826,-47 916,-47 916,-83"/>
<text text-anchor="middle" x="871" y="-61.3" font-family="Times,serif" font-size="14.00" fill="#000000">buildNeeded</text>
</g>
<!-- build&#45;&gt;buildNeeded -->
<g id="edge20" class="edge">
<title>build&#45;&gt;buildNeeded</title>
<path fill="none" stroke="#000000" d="M819.4116,-118.8314C827.521,-110.3694 837.3156,-100.1489 846.182,-90.8971"/>
<polygon fill="#000000" stroke="#000000" points="848.9618,-93.0549 853.354,-83.4133 843.9079,-88.2115 848.9618,-93.0549"/>
</g>
<!-- buildDependents&#45;&gt;buildDependents -->
<g id="edge19" class="edge">
<title>buildDependents&#45;&gt;buildDependents</title>
<path fill="none" stroke="#ffff00" d="M790.2256,-77.7584C800.6727,-76.1434 808,-71.8906 808,-65 808,-60.5857 804.9929,-57.2539 800.0848,-55.0048"/>
<polygon fill="#ffff00" stroke="#ffff00" points="800.7992,-51.5702 790.2256,-52.2416 798.9101,-58.3105 800.7992,-51.5702"/>
</g>
<!-- buildNeeded&#45;&gt;buildNeeded -->
<g id="edge21" class="edge">
<title>buildNeeded&#45;&gt;buildNeeded</title>
<path fill="none" stroke="#ff0000" d="M916.0205,-78.2025C926.3858,-77.0649 934,-72.6641 934,-65 934,-60.0902 930.8751,-56.5196 925.904,-54.2883"/>
<polygon fill="#ff0000" stroke="#ff0000" points="926.5726,-50.8474 916.0205,-51.7975 924.8619,-57.6352 926.5726,-50.8474"/>
</g>
<!-- spotbugsMain&#45;&gt;check -->
<g id="edge38" class="edge">
<title>spotbugsMain&#45;&gt;check</title>
<path fill="none" stroke="#00ff00" d="M240.2342,-262.8314C252.788,-253.7927 268.1283,-242.7476 281.6391,-233.0198"/>
<polygon fill="#00ff00" stroke="#00ff00" points="283.7036,-235.8463 289.7739,-227.1628 279.6134,-230.1655 283.7036,-235.8463"/>
</g>
<!-- spotbugsTest&#45;&gt;check -->
<g id="edge39" class="edge">
<title>spotbugsTest&#45;&gt;check</title>
<path fill="none" stroke="#00ff00" d="M137.3147,-262.8847C143.7606,-259.9889 150.5037,-257.22 157,-255 208.5965,-237.3675 227.9374,-246.7588 278.4045,-228.9012"/>
<polygon fill="#00ff00" stroke="#00ff00" points="279.7,-232.1536 287.8452,-225.3781 277.2525,-225.5953 279.7,-232.1536"/>
</g>
<!-- javadoc -->
<g id="node29" class="node">
<title>javadoc</title>
<polygon fill="#ffa500" stroke="#000000" points="907.5,-697 846.5,-697 846.5,-661 907.5,-661 907.5,-697"/>
<text text-anchor="middle" x="877" y="-675.3" font-family="Times,serif" font-size="14.00" fill="#000000">javadoc</text>
</g>
<!-- clean -->
<g id="node30" class="node">
<title>clean</title>
<polygon fill="#00ffff" stroke="#000000" points="1176,-697 1122,-697 1122,-661 1176,-661 1176,-697"/>
<text text-anchor="middle" x="1149" y="-675.3" font-family="Times,serif" font-size="14.00" fill="#000000">clean</text>
</g>
<!-- cleanNeeded -->
<g id="node31" class="node">
<title>cleanNeeded</title>
<polygon fill="#00ffff" stroke="#000000" points="1175.5,-606 1086.5,-606 1086.5,-570 1175.5,-570 1175.5,-606"/>
<text text-anchor="middle" x="1131" y="-584.3" font-family="Times,serif" font-size="14.00" fill="#000000">cleanNeeded</text>
</g>
<!-- clean&#45;&gt;cleanNeeded -->
<g id="edge34" class="edge">
<title>clean&#45;&gt;cleanNeeded</title>
<path fill="none" stroke="#000000" d="M1145.3574,-660.5848C1142.8279,-647.7967 1139.4107,-630.5207 1136.5447,-616.0313"/>
<polygon fill="#000000" stroke="#000000" points="1139.9497,-615.208 1134.5757,-606.0773 1133.0828,-616.5664 1139.9497,-615.208"/>
</g>
<!-- cleanAll -->
<g id="node35" class="node">
<title>cleanAll</title>
<polygon fill="#ffa500" stroke="#000000" points="1298,-606 1244,-606 1244,-570 1298,-570 1298,-606"/>
<text text-anchor="middle" x="1271" y="-584.3" font-family="Times,serif" font-size="14.00" fill="#000000">clean</text>
</g>
<!-- clean&#45;&gt;cleanAll -->
<g id="edge42" class="edge">
<title>clean&#45;&gt;cleanAll</title>
<path fill="none" stroke="#0000ff" d="M1173.3953,-660.8035C1192.0968,-646.854 1218.0825,-627.4712 1238.5397,-612.2122"/>
<polygon fill="#0000ff" stroke="#0000ff" points="1240.7239,-614.9495 1246.647,-606.165 1236.5386,-609.3384 1240.7239,-614.9495"/>
</g>
<!-- cleanNeeded&#45;&gt;cleanNeeded -->
<g id="edge35" class="edge">
<title>cleanNeeded&#45;&gt;cleanNeeded</title>
<path fill="none" stroke="#ff0000" d="M1175.6631,-601.2025C1185.9463,-600.0649 1193.5,-595.6641 1193.5,-588 1193.5,-583.0902 1190.3999,-579.5196 1185.4682,-577.2883"/>
<polygon fill="#ff0000" stroke="#ff0000" points="1186.2171,-573.8674 1175.6631,-574.7975 1184.4935,-580.6519 1186.2171,-573.8674"/>
</g>
<!-- cleanAllNeeded -->
<g id="node36" class="node">
<title>cleanAllNeeded</title>
<polygon fill="#ffa500" stroke="#000000" points="1315.5,-534 1226.5,-534 1226.5,-498 1315.5,-498 1315.5,-534"/>
<text text-anchor="middle" x="1271" y="-512.3" font-family="Times,serif" font-size="14.00" fill="#000000">cleanNeeded</text>
</g>
<!-- cleanNeeded&#45;&gt;cleanAllNeeded -->
<g id="edge43" class="edge">
<title>cleanNeeded&#45;&gt;cleanAllNeeded</title>
<path fill="none" stroke="#0000ff" d="M1166.3279,-569.8314C1184.6493,-560.4089 1207.2102,-548.8062 1226.6895,-538.7883"/>
<polygon fill="#0000ff" stroke="#0000ff" points="1228.3912,-541.8489 1235.6834,-534.1628 1225.1898,-535.6239 1228.3912,-541.8489"/>
</g>
<!-- echo -->
<g id="node32" class="node">
<title>echo</title>
<polygon fill="#00ffff" stroke="#000000" points="318,-697 264,-697 264,-661 318,-661 318,-697"/>
<text text-anchor="middle" x="291" y="-675.3" font-family="Times,serif" font-size="14.00" fill="#000000">echo</text>
</g>
<!-- bndproperties -->
<g id="node33" class="node">
<title>bndproperties</title>
<polygon fill="#00ffff" stroke="#000000" points="150.5,-697 55.5,-697 55.5,-661 150.5,-661 150.5,-697"/>
<text text-anchor="middle" x="103" y="-675.3" font-family="Times,serif" font-size="14.00" fill="#000000">bndproperties</text>
</g>
<!-- cleanAll&#45;&gt;cleanAllNeeded -->
<g id="edge44" class="edge">
<title>cleanAll&#45;&gt;cleanAllNeeded</title>
<path fill="none" stroke="#000000" d="M1271,-569.8314C1271,-562.131 1271,-552.9743 1271,-544.4166"/>
<polygon fill="#000000" stroke="#000000" points="1274.5001,-544.4132 1271,-534.4133 1267.5001,-544.4133 1274.5001,-544.4132"/>
</g>
<!-- distclean -->
<g id="node37" class="node">
<title>distclean</title>
<polygon fill="#ffa500" stroke="#000000" points="1418,-534 1352,-534 1352,-498 1418,-498 1418,-534"/>
<text text-anchor="middle" x="1385" y="-512.3" font-family="Times,serif" font-size="14.00" fill="#000000">distclean</text>
</g>
<!-- cleanAll&#45;&gt;distclean -->
<g id="edge45" class="edge">
<title>cleanAll&#45;&gt;distclean</title>
<path fill="none" stroke="#000000" d="M1298.0164,-570.937C1312.7939,-561.6038 1331.3302,-549.8967 1347.4903,-539.6904"/>
<polygon fill="#000000" stroke="#000000" points="1349.5987,-542.4984 1356.1847,-534.1992 1345.8608,-536.5799 1349.5987,-542.4984"/>
</g>
<!-- cleanAllNeeded&#45;&gt;cleanAllNeeded -->
<g id="edge46" class="edge">
<title>cleanAllNeeded&#45;&gt;cleanAllNeeded</title>
<path fill="none" stroke="#ff0000" d="M1315.6631,-529.2025C1325.9463,-528.0649 1333.5,-523.6641 1333.5,-516 1333.5,-511.0902 1330.3999,-507.5196 1325.4682,-505.2883"/>
<polygon fill="#ff0000" stroke="#ff0000" points="1326.2171,-501.8674 1315.6631,-502.7975 1324.4935,-508.6519 1326.2171,-501.8674"/>
</g>
<!-- distcleanNeeded -->
<g id="node38" class="node">
<title>distcleanNeeded</title>
<polygon fill="#ffa500" stroke="#000000" points="1368,-462 1258,-462 1258,-426 1368,-426 1368,-462"/>
<text text-anchor="middle" x="1313" y="-440.3" font-family="Times,serif" font-size="14.00" fill="#000000">distcleanNeeded</text>
</g>
<!-- cleanAllNeeded&#45;&gt;distcleanNeeded -->
<g id="edge47" class="edge">
<title>cleanAllNeeded&#45;&gt;distcleanNeeded</title>
<path fill="none" stroke="#000000" d="M1281.5984,-497.8314C1286.2877,-489.7925 1291.9028,-480.1666 1297.0798,-471.2918"/>
<polygon fill="#000000" stroke="#000000" points="1300.2434,-472.8146 1302.2589,-462.4133 1294.1969,-469.2875 1300.2434,-472.8146"/>
</g>
<!-- distclean&#45;&gt;distcleanNeeded -->
<g id="edge48" class="edge">
<title>distclean&#45;&gt;distcleanNeeded</title>
<path fill="none" stroke="#000000" d="M1366.8314,-497.8314C1358.2848,-489.2848 1347.9443,-478.9443 1338.6198,-469.6198"/>
<polygon fill="#000000" stroke="#000000" points="1340.9592,-467.0095 1331.4133,-462.4133 1336.0095,-471.9592 1340.9592,-467.0095"/>
</g>
<!-- distcleanNeeded&#45;&gt;distcleanNeeded -->
<g id="edge49" class="edge">
<title>distcleanNeeded&#45;&gt;distcleanNeeded</title>
<path fill="none" stroke="#ff0000" d="M1368.0733,-456.854C1378.5741,-455.3159 1386,-451.0313 1386,-444 1386,-439.4956 1382.9524,-436.1184 1378.0011,-433.8684"/>
<polygon fill="#ff0000" stroke="#ff0000" points="1378.6429,-430.4153 1368.0733,-431.146 1376.7917,-437.166 1378.6429,-430.4153"/>
</g>
<!-- init -->
<g id="node39" class="node">
<title>init</title>
<polygon fill="#e0ffff" stroke="#000000" points="1390,-697 1336,-697 1336,-661 1390,-661 1390,-697"/>
<text text-anchor="middle" x="1363" y="-675.3" font-family="Times,serif" font-size="14.00" fill="#000000">init</text>
</g>
<!-- wrapper -->
<g id="node40" class="node">
<title>wrapper</title>
<polygon fill="#ffa500" stroke="#000000" points="1317.5,-697 1254.5,-697 1254.5,-661 1317.5,-661 1317.5,-697"/>
<text text-anchor="middle" x="1286" y="-675.3" font-family="Times,serif" font-size="14.00" fill="#000000">wrapper</text>
</g>
</g>
</svg>
